<svg width="20" height="20" viewBox="0 0 20 20" fill="none" xmlns="http://www.w3.org/2000/svg">
            <path d="M10 20C15.5228 20 20 15.5228 20 10C20 4.47715 15.5228 0 10 0C4.47715 0 0 4.47715 0 10C0 15.5228 4.47715 20 10 20Z" fill="#627EEA"/>
            <path d="M10.3116 2.49805V8.04206L14.9973 10.1361L10.3116 2.49805Z" fill="white" fill-opacity="0.602"/>
            <path d="M10.3117 2.49805L5.62604 10.1361L10.3117 8.04206V2.49805Z" fill="white"/>
            <path d="M10.3116 13.7279V17.495L15 11.0078L10.3116 13.7279Z" fill="white" fill-opacity="0.602"/>
            <path d="M10.3117 17.495V13.7279L5.62604 11.0078L10.3117 17.495Z" fill="white"/>
            <path d="M10.3116 12.8571L14.9973 10.137L10.3116 8.04297V12.8571Z" fill="white" fill-opacity="0.2"/>
            </svg>